<svg width="30" height="53" viewBox="0 0 30 53" fill="none" xmlns="http://www.w3.org/2000/svg">
<g id="_1" clip-path="url(#clip0_3_87)">
<path id="Vector" d="M0.952381 28.2302H7.48299V52.1501C7.48299 52.6357 7.89116 53 8.43537 53H19.4558C20 53 20.4082 52.6357 20.4082 52.1501V28.3517H27.8912C28.3673 28.3517 28.7755 28.0481 28.8435 27.6231L30 18.8202C30 18.8202 30 18.3345 29.7959 18.1523C29.5918 17.9702 29.3878 17.8488 29.0476 17.8488H20.4082V12.3242C20.4082 10.685 21.4286 9.83505 23.4014 9.83505H29.0476C29.5918 9.83505 30 9.47079 30 8.98511V0.849943C30 0.364261 29.5918 0 29.0476 0H21.2925C21.2925 0 21.0884 0 20.9524 0C19.5918 0 14.898 0.242841 11.2245 3.27835C7.14286 6.61741 7.68708 10.685 7.82313 11.3528V17.7881H0.952381C0.408163 17.7881 0 18.1523 0 18.638V27.3196C0 27.8053 0.408163 28.1695 0.952381 28.1695V28.2302Z" fill="#F9AF3A"/>
</g>
<defs>
<clipPath id="clip0_3_87">
<rect width="30" height="53" fill="white"/>
</clipPath>
</defs>
</svg>
