<svg width="63" height="53" viewBox="0 0 63 53" fill="none" xmlns="http://www.w3.org/2000/svg">
<g id="_1" clip-path="url(#clip0_3_89)">
<path id="Vector" d="M19.0775 41.447C13.1197 40.9249 9.12676 37.8571 6.97183 32.1133C8.93662 32.4396 10.838 32.3744 12.7394 31.9175C5.32394 30.0246 2.34507 23.367 2.53521 18.6675C4.30985 19.5813 6.14788 20.234 8.30281 20.2992C5.51408 18.2106 3.67605 15.5345 2.91549 12.1404C2.15492 8.74629 2.66197 5.54802 4.30985 2.48028C11.3451 10.9655 20.2183 15.665 31.0563 16.4483C31.0563 15.665 30.8028 14.947 30.8028 14.2291C30.4225 8.61575 33.5915 3.45935 38.5352 1.10959C43.0986 -0.979075 48.9296 -1.12671e-05 52.6056 3.58989C53.1127 4.11206 53.493 4.17733 54.1901 4.04679C56.7254 3.39408 59.1338 2.41501 61.4789 0.979053C61.0352 2.61083 60.2746 3.91625 59.3239 5.15639C58.3732 6.39654 57.2324 7.3756 55.838 8.35467C58.4366 8.02831 60.7183 7.37561 63 6.46181C61.7324 8.55048 60.2113 10.3781 58.3099 11.8793C57.169 12.7278 56.7253 13.6416 56.7253 15.1428C56.7253 24.085 53.8732 32.048 48.4859 39.032C43.0352 46.1465 35.8732 50.585 27.1901 52.282C23.9577 52.9347 20.662 53.1305 17.3662 52.8695C11.1549 52.4778 5.38732 50.5197 -0.063385 46.9951C7.09859 47.6478 13.3732 45.8855 19.0141 41.447H19.0775Z" fill="#F9AF3A"/>
</g>
<defs>
<clipPath id="clip0_3_89">
<rect width="63" height="53" fill="white"/>
</clipPath>
</defs>
</svg>
