<svg width="83" height="53" viewBox="0 0 83 53" fill="none" xmlns="http://www.w3.org/2000/svg">
<g id="_1" clip-path="url(#clip0_3_91)">
<path id="Vector" d="M79.7871 4.55326C76.775 1.33562 71.2863 0 60.7105 0H22.3565C11.5129 0 5.89032 1.39633 2.87823 4.85682C0 8.19588 0 13.1741 0 19.9737V33.0263C0 46.2612 3.48065 53 22.3565 53H60.7105C69.8806 53 74.9677 51.8465 78.2476 48.9931C81.5944 46.079 83.0669 41.2829 83.0669 33.0263V19.9737C83.0669 12.7491 82.8661 7.77091 79.854 4.55326H79.7871ZM53.2806 28.291L35.8774 36.5475C35.4758 36.7297 35.0742 36.8511 34.6056 36.8511C34.1371 36.8511 33.6685 36.7297 33.2 36.4868C32.3968 36.0619 31.9282 35.2726 31.9282 34.4227V17.9702C31.9282 17.1203 32.3968 16.331 33.2 15.9061C34.0032 15.4811 35.0073 15.4204 35.8105 15.8454L53.2137 24.0412C54.0839 24.4662 54.6863 25.3162 54.6863 26.1661C54.6863 27.0767 54.1508 27.9267 53.2806 28.3517V28.291Z" fill="#F9AF3A"/>
</g>
<defs>
<clipPath id="clip0_3_91">
<rect width="83" height="53" fill="white"/>
</clipPath>
</defs>
</svg>
