<svg width="77" height="53" viewBox="0 0 77 53" fill="none" xmlns="http://www.w3.org/2000/svg">
<g id="_1" clip-path="url(#clip0_3_95)">
<path id="Vector" d="M0 3.81976C0.461868 2.94438 1.12168 2.54649 1.91345 2.46691C2.30934 2.46691 2.70523 2.46691 3.10111 2.46691C6.33419 2.46691 9.56727 2.46691 12.8003 2.46691C14.6478 2.46691 15.7035 3.2627 16.4293 5.33177C18.1448 10.3453 20.2562 15.0405 22.4336 19.8153C23.3573 21.8047 24.413 23.6351 25.9306 25.1471C26.2605 25.4654 26.5904 25.7837 26.9863 25.9429C27.976 26.4204 28.7018 26.102 29.2296 24.9879C29.9554 23.3963 30.0214 21.7252 30.1534 19.9744C30.5493 15.9954 30.4833 12.0165 29.8235 8.03748C29.4276 5.80925 28.2399 4.53598 26.4584 4.0585C26.1945 4.0585 25.7326 4.0585 25.6007 3.6606C25.5347 3.2627 25.8646 2.8648 26.0626 2.62607C26.8543 1.59153 27.844 0.954894 28.9657 0.716155C33.3205 -0.0796404 37.6752 -0.15922 41.964 0.716155C44.0754 1.11405 44.8012 1.98943 45.0651 4.93387C45.2631 7.32126 45.0651 9.78823 45.0651 12.1756C44.9991 15.2792 44.9332 18.4624 44.9991 21.6456C44.9991 22.6005 45.1311 23.5555 45.461 24.4309C45.9889 25.7837 47.0446 26.5795 48.4302 25.2267C50.4756 23.1576 51.8612 20.5315 53.2468 17.8258C55.3582 13.8468 57.0737 9.62907 58.5253 5.25219C59.3171 2.94438 59.647 2.70565 61.6924 2.70565C65.7832 2.70565 69.8081 2.62607 73.8989 2.54649C74.5587 2.54649 75.2185 2.54649 75.8123 2.94438C76.8021 3.42186 77.132 4.13808 77 5.41135C76.6701 7.63958 75.7464 9.54949 74.8226 11.4594C72.4473 16.2342 69.4781 20.4519 66.7729 24.9083C66.1791 25.9429 65.5193 26.8978 64.9914 28.0915C64.1997 29.9219 64.3316 31.4339 65.4533 33.0255C66.377 34.2987 67.4327 35.4924 68.4884 36.6861C71.2596 39.8693 74.0309 43.1321 76.1423 47.1111C76.4722 47.6681 76.6701 48.3047 76.8021 49.021C77.2639 51.3288 76.4062 52.7612 74.4927 52.9204C73.569 52.9999 72.6452 53.0795 71.7215 53.0795C68.6864 53.0795 65.7172 53.1591 62.6821 53.2387C60.8346 53.2387 59.2511 52.2837 57.7995 51.0105C56.15 49.4984 54.8963 47.5885 53.5107 45.8378C52.521 44.4849 51.5973 43.1321 50.4096 42.018C50.0797 41.6996 49.7498 41.3813 49.3539 41.2222C48.5621 40.7447 47.7704 40.8243 47.1105 41.6201C45.7249 43.1321 45.395 45.1216 45.1971 47.1906C45.1311 48.1456 45.1311 49.1005 45.0651 50.0555C44.9332 51.8062 44.2074 52.8408 42.8218 52.9999C36.2236 53.6366 29.9554 52.7612 24.2811 48.066C20.5201 44.9624 17.419 41.063 14.7138 36.6861C8.70951 26.8978 4.22279 16.6321 0.263925 5.88883C0.197943 5.65009 0.263925 5.25219 0 5.09303V3.81976Z" fill="#F9AF3A"/>
</g>
<defs>
<clipPath id="clip0_3_95">
<rect width="77" height="53" fill="white"/>
</clipPath>
</defs>
</svg>
